<svg xmlns="http://www.w3.org/2000/svg" viewBox="0 0 157 257">
  <path d="M110.4 1c.33.55-.49 2.24-1.82 3.75-1.33 1.51-3.83 5.67-5.55 9.25a178.66 178.66 0 01-4.59 9c-.81 1.38-2.4 4.52-3.54 7a256.75 256.75 0 01-5.8 11.5c-2.79 5.22-4.74 7.57-7.67 9.23-3.88 2.21-4.43 2.24-42.68 2.25L0 53v62h41c3.88 3.88 5 5.68 5 6.5 0 .82-1.33 4.31-2.96 7.75a198.71 198.71 0 01-6.46 12.25c-1.93 3.3-5.23 9.38-7.34 13.5a19467 19467 0 01-13.86 27c-5.51 10.72-11.22 21.41-12.7 23.75L0 210v47c42.78 0 46-.21 46-1.5 0-.82.9-1.95 2-2.5s2-1.45 2-2 2.76-6.06 6.13-12.25 7.99-14.8 10.25-19.13c2.27-4.33 5.81-9.4 7.87-11.25L78 205l77.5.04c1.15-5.84 1.49-18.34 1.5-31.54.01-13.2-.32-25.47-.74-27.27l-.76-3.28c-36.2.06-40.43-.22-42.25-1.44A5.08 5.08 0 01111 137c0-1.79 2.61-7.82 6.5-15 3.57-6.6 6.5-12.22 6.5-12.5 0-.28 5.31-10.51 11.8-22.75A6567.08 6567.08 0 00152.02 56l4.43-8.5c.58-27.12.47-37.81.15-41.25L156 0c-38.24 0-46 .34-45.6 1z" fill="#000000"/>
</svg>
