<svg xmlns="http://www.w3.org/2000/svg" viewBox="0 0 282 283">
  <path d="M17.5.85a39.3 39.3 0 00-5 2.28 28.17 28.17 0 00-6.04 4.99A30.11 30.11 0 001.68 16C.06 20.2-.04 28.78.22 143L.5 265.5c4.08 6.2 6.33 8.99 7.63 10.19 1.3 1.21 4.06 2.9 6.12 3.75C17.53 280.8 27.36 281 92.5 281H167V150.5l-26 .5.5-30.34 25 .48c1.13-32.27 1.93-44.56 2.52-48.14.59-3.58 1.77-8.75 2.62-11.5a49.82 49.82 0 015.2-10.5 35.77 35.77 0 018.66-8.81 49.15 49.15 0 0110-4.91c3.79-1.21 10.37-1.68 27.25-1.94L245 35v34c-24.01-.02-26.02.25-29.98 2.24-2.67 1.35-5.29 3.67-6.5 5.76-1.82 3.15-2.04 5.51-2.27 23.75L206 121c32.64 0 37 .29 36.99 1.25 0 .69-.67 6.88-1.49 13.75a380.56 380.56 0 00-1.49 13.75c-.01.95-4.13 1.25-17.26 1.25H205.5c1.16 58.51 1.5 87.76 1.5 102.75V281c54.36-.04 57.94-.24 61.5-1.86 2.2-1 5.37-3.35 7.04-5.23a30.45 30.45 0 004.78-7.91c1.62-4.2 1.72-12.78 1.46-127l-.28-122.5c-4.08-6.2-6.33-8.93-7.63-10.07a58.11 58.11 0 00-5.37-4C265.58.55 262.27.5 142.5.34 74.85.25 18.6.48 17.5.85z" fill="#fafafa"/>
  <path d="M199.5 36.43c-3.3.7-8.43 2.57-11.39 4.17-2.97 1.59-6.8 4.53-8.5 6.53a47.48 47.48 0 00-5.31 8 61.97 61.97 0 00-3.74 10.37c-.85 3.3-1.99 11.4-2.54 18-.54 6.6-1 17.74-1 24.75L167 121l-25.5-.34L141 151l26-.5V282h40.5L206 151c29.93 0 34-.3 34.01-1.25 0-.69.67-6.87 1.49-13.75.82-6.87 1.49-13.06 1.49-13.75.01-.96-4.35-1.25-18.49-1.25H206c.48-38.49.7-40.85 2.52-44 1.21-2.09 3.83-4.41 6.5-5.76 3.96-1.99 5.97-2.26 17.23-2.25L245 69V35c-31.57.13-41.91.67-45.5 1.43z" fill="#151515"/>
</svg>
