<svg xmlns="http://www.w3.org/2000/svg" viewBox="0 0 282 282">
  <path d="M17.5.85a39.3 39.3 0 00-5 2.28 28.17 28.17 0 00-6.04 4.99A30.11 30.11 0 001.68 16C.06 20.2-.04 28.78.22 143c.27 119.17.33 122.58 2.21 125.5a58.11 58.11 0 004 5.37 36.76 36.76 0 006.07 5l4 2.63h249c6.2-4.01 9.14-6.49 10.53-8.09 1.4-1.6 3.32-4.93 4.28-7.41 1.63-4.21 1.73-12.48 1.47-127l-.28-122.5c-4.08-6.2-6.33-8.93-7.63-10.07a58.11 58.11 0 00-5.37-4C265.58.55 262.27.5 142.5.34 74.85.25 18.6.48 17.5.85z" fill="#fafafa"/>
  <path d="M53.5 55.3a19.05 19.05 0 00-6.23 6.24A18 18 0 0045.03 70c0 2.84.84 5.98 2.27 8.5a19.05 19.05 0 006.24 6.23A18 18 0 0062 86.97c2.84 0 5.98-.84 8.5-2.27a19.05 19.05 0 006.23-6.24A18 18 0 0078.97 70c0-2.84-.84-5.98-2.27-8.5a19.05 19.05 0 00-6.24-6.23A18 18 0 0062 53.03c-2.84 0-5.98.84-8.5 2.27zM184 97.04c-2.47.51-7.65 2.47-11.5 4.36a56.27 56.27 0 00-13.25 9.52L153 117V99h-32v130h34c.04-52.31.5-72 1.05-77.5.56-5.5 1.82-11.8 2.82-14 1-2.2 3.35-5.52 5.23-7.38a30.91 30.91 0 017.4-5.19c2.2-1 5.8-2.12 8-2.5 2.33-.39 6.3-.13 9.5.64 3.93.94 6.5 2.32 9 4.87a24.99 24.99 0 014.93 7.56c1.12 3.17 1.48 13.33 1.74 48.75L205 229h34c-.53-94.78-.79-102.16-2.23-106.5a51.06 51.06 0 00-4.96-10 35.77 35.77 0 00-8.81-8.66 53.86 53.86 0 00-11-5.42c-3.12-1.01-9.39-1.89-14.5-2.04-4.95-.15-11.03.15-13.5.66zM45 164v65h34V99H45v65z" fill="#151515"/>
</svg>
