<svg xmlns="http://www.w3.org/2000/svg" viewBox="0 0 280 280">
  <g id="Background">
    <path id="Path 0" fill="#fafafa" d="M128-.4l-15 3c-6.9 1.4-15.7 3.7-19.5 5a177.3 177.3 0 00-31 15.7 152.8 152.8 0 00-39.3 39.2c-2.6 3.8-6.6 10.8-8.9 15.5-2.3 4.7-5.5 12.5-7.2 17.5-1.6 5-4.2 15.5-5.7 23.5a88.5 88.5 0 00-2.1 25A176.7 176.7 0 008 187.5 170.7 170.7 0 0023.5 218 152.8 152.8 0 0061 255.8c3 2 8.2 5.1 11.5 7 3.3 1.9 7.7 4 9.8 4.8L86 269c0-8.1.5-14.3 1-19 .5-4.7 5-26.7 10-49l9.1-40.5a89.7 89.7 0 01-2.9-25.5 34.3 34.3 0 019.2-24.3c2-2 5.5-4.7 7.8-5.8 3.2-1.6 5.6-2 9.3-1.7 2.8.2 6.3 1.3 8 2.4a19 19 0 015 6c1.6 3 2 5.7 1.9 11.9 0 6-1.2 12-4.2 23.5l-6.4 23.8-2.3 8.3c4.5 8 6.8 11.9 8.1 13.7 1.3 1.7 4.3 4.2 6.7 5.3 3.5 1.8 5.5 2 11.7 1.7 5.8-.3 8.9-1 13.4-3.3 3.5-1.8 8-5.3 11.2-8.8 3-3.2 7-8.9 8.9-13 1.9-4 4.9-12.6 6.6-19.2a103.6 103.6 0 002.5-42.5 75.4 75.4 0 00-5-14.5 42.3 42.3 0 00-9.3-12.5c-3.2-3-8.3-6.8-11.3-8.2-3-1.5-8.4-3.5-12-4.5a82.9 82.9 0 00-21-1.7c-12.4 0-15.6.3-22 2.3a112 112 0 00-15.4 6.4 59 59 0 00-25 27c-2.5 5-5 11.9-5.6 15.2-.7 3.5-1 10.8-.8 17.5.4 9.4.9 12.3 2.7 16 1.3 2.5 2.9 5.2 3.6 6a29.8 29.8 0 014 15.5c-.3 1.7-1.2 4-2 5.3-1.2 1.8-2.4 2.2-6.5 2.2-4.4 0-5.5-.4-9.3-3.9-2.3-2.1-5.9-6.8-8-10.2-2-3.5-5-10-6.4-14.4a51.1 51.1 0 01-2.6-19.5c0-8.8.5-13.5 2.2-20a138 138 0 014.8-14.5c1.4-3.3 4.4-9 6.8-12.5a101.8 101.8 0 0160-39.5c5-1 12.6-1.7 20-1.7 8.3 0 15.2.7 22.5 2.2a138 138 0 0118 5c4.1 1.6 10.3 4.6 13.8 6.7 3.4 2.1 8.5 5.8 11.4 8.3 2.9 2.5 7.2 7.2 9.7 10.5a91.8 91.8 0 0112.5 26 124.5 124.5 0 01-2 57.3 114 114 0 01-6.3 16c-2.1 4.2-5.9 10.4-8.3 13.7a73.9 73.9 0 01-23.3 19.3 82 82 0 01-11.5 4.6c-3 .8-8.7 2-12.5 2.5a50.1 50.1 0 01-26-3.2c-2.8-1.3-7-4.2-9.5-6.5a20 20 0 00-5.8-4.2c-.6 0-1.4.8-1.7 1.8l-3.4 14.2a238 238 0 01-14.5 42.3c-3.4 7.4-3.9 9-2.6 9.7.8.4 6.5 1.8 12.5 3.1 8.7 1.9 14 2.4 25 2.3 11.5 0 16.2-.5 26.5-2.8 6.9-1.6 15.7-4 19.5-5.3a175.4 175.4 0 0031-15.6 151.5 151.5 0 0039.3-39.2c2.6-3.8 6.6-10.8 8.9-15.5 2.3-4.7 5.5-12.6 7.2-17.5 1.7-5 4.2-15.5 5.7-23.5 2.2-12 2.6-16.3 2.1-25a177 177 0 00-8.8-43.5A170.7 170.7 0 00256.5 62a151.5 151.5 0 00-39-38.7 181.4 181.4 0 00-31-15.6C182.7 6.3 173.9 4 167 2.5c-8.6-1.9-16.2-2.8-24.5-3-6.6-.2-13.1-.2-14.5.1z"/>
    <path id="Path 1" d="M131.5 49.1a111 111 0 00-15 2.8c-3.8 1-10.2 3.4-14 5.1-3.8 1.8-10 5.2-13.8 7.6A99.2 99.2 0 0062.5 90a94 94 0 00-6.7 12.5 138 138 0 00-4.8 14.5 67.3 67.3 0 00-2.2 20c0 9.6.5 12.8 2.6 19.5a87.6 87.6 0 006.4 14.4c2.1 3.4 5.7 8 8 10.2 3.8 3.5 4.9 3.9 9.3 3.9 4 0 5.3-.4 6.5-2.3.8-1.2 1.8-3.5 2.1-5.2.4-1.7-.1-5.3-1.1-8.5-1-3-2.3-6.2-3-7-.7-.8-2.3-3.5-3.6-6-1.8-3.7-2.3-6.6-2.7-16-.2-6.7 0-14 .8-17.5.6-3.3 3.1-10.2 5.6-15.3a59 59 0 0125-26.9A112 112 0 01120 74c6.4-2 9.6-2.4 22-2.3 10.5 0 16.3.5 21 1.7 3.6 1 9 3 12 4.5 3 1.4 8.1 5.2 11.3 8.2 4 3.7 7 7.8 9.3 12.5a75.4 75.4 0 015 14.5 103.6 103.6 0 01-2.5 42.5c-1.7 6.6-4.7 15.3-6.6 19.3-2 4-5.8 9.7-8.9 13-3.1 3.4-7.7 6.9-11.2 8.7-4.5 2.2-7.7 3-13.4 3.3-6.2.4-8.2 0-11.8-1.7a21.5 21.5 0 01-6.6-5.3c-1.3-1.8-3.6-5.6-5.2-8.5l-2.9-5.2 8.7-32.1c3-11.5 4.1-17.6 4.2-23.5 0-6.2-.3-8.9-1.9-11.9a19 19 0 00-5-6 19.3 19.3 0 00-8-2.4c-3.7-.3-6.1.1-9.3 1.7a33.7 33.7 0 00-7.8 5.8 34.3 34.3 0 00-9.2 24.3c-.3 6.6 0 12 1.2 17.5l1.7 8A1828.6 1828.6 0 0087 250c-.5 4.7-1 11.2-1 14.5 0 4.4.4 6.7 1.8 8.5 1 1.4 3.2 2.9 4.8 3.3 1.9.5 4 .3 5.8-.5 2.2-1 3.9-3.4 7.1-10.3a232 232 0 0018-56.8c.3-1 1-1.7 1.8-1.7.6 0 3.2 2 5.7 4.2 2.5 2.3 6.8 5.2 9.5 6.5a53.5 53.5 0 0026 3.2 109 109 0 0012.5-2.5c3-.9 8.2-3 11.5-4.6a73.9 73.9 0 0023.3-19.3c2.4-3.3 6.2-9.5 8.3-13.8a114 114 0 006.3-16 124.5 124.5 0 002-57.3c-.8-3.2-3-9-4.8-12.9a91.8 91.8 0 00-7.8-13c-2.4-3.3-6.7-8-9.6-10.5-2.8-2.5-8-6.2-11.4-8.3-3.5-2-9.7-5-13.8-6.7a127.6 127.6 0 00-51.5-6.9z" fill="#151515"/>
    <path id="Path 2" fill="#fafafa" d="M123.5 128c-1 1.7-1.6 5-1.5 7.7.2 4.5.2 4.6 1 1.8a84.4 84.4 0 002.3-12.5c-.1 0-1 1.3-1.8 3z"/>
  </g>
</svg>
