<svg xmlns="http://www.w3.org/2000/svg" viewBox="0 0 282 282">
  <path d="M129 .61c-1.37.25-8.12 1.61-15 3.02-6.87 1.41-15.65 3.69-19.5 5.06A177.35 177.35 0 0079 15.42a182.98 182.98 0 00-15.5 8.84A176.32 176.32 0 0049 35.28 152.76 152.76 0 0035.18 49.1a184.91 184.91 0 00-10.97 14.4A172.72 172.72 0 0015.33 79 166.83 166.83 0 008.1 96.5c-1.65 4.95-4.21 15.53-5.68 23.5C.21 132-.16 136.31.28 145c.3 5.78 1.75 16.13 3.23 23 1.48 6.88 3.99 16.1 5.58 20.5 1.6 4.4 4.74 11.6 6.99 16s6.04 10.93 8.43 14.5c2.4 3.57 7.2 9.83 10.67 13.9 3.48 4.07 9.7 10.29 13.82 13.82 4.13 3.53 9.97 8.05 13 10.05 3.03 2.01 8.2 5.18 11.5 7.05a86.53 86.53 0 009.75 4.79L87 270c.03-8.14.45-14.32.95-19 .51-4.68 5.02-26.72 10.03-49l9.12-40.5c-2.83-13.56-3.2-18.9-2.88-25.5.37-7.49 1.02-10.66 3.06-15a41.84 41.84 0 016.16-9.25 33.74 33.74 0 017.81-5.87c3.15-1.58 5.54-2.02 9.25-1.71 2.82.23 6.31 1.31 8 2.47 1.65 1.13 3.9 3.82 5 5.96 1.55 3.02 1.98 5.71 1.89 11.9-.08 5.94-1.17 11.99-4.23 23.5-2.27 8.53-5.14 19.23-6.39 23.79l-2.27 8.29c4.48 8.08 6.84 11.88 8.14 13.67 1.3 1.79 4.27 4.21 6.61 5.38 3.52 1.76 5.54 2.06 11.75 1.71 5.75-.32 8.87-1.11 13.39-3.38 3.49-1.76 8.07-5.3 11.25-8.71a61.7 61.7 0 008.84-13c1.91-3.99 4.88-12.65 6.6-19.25a103.64 103.64 0 003.61-23.5c.37-8.32.07-13.57-1.08-19a75.39 75.39 0 00-5-14.5 42.3 42.3 0 00-9.26-12.52c-3.22-3.03-8.32-6.74-11.35-8.22a78.75 78.75 0 00-12-4.44c-4.72-1.26-10.48-1.74-21-1.76-12.41-.02-15.58.31-22 2.3a111.95 111.95 0 00-15.41 6.48 50.67 50.67 0 00-14.25 10.91c-4.51 4.8-7.62 9.42-10.78 16-2.44 5.09-4.96 11.95-5.6 15.25-.68 3.47-.99 10.85-.74 17.5.35 9.45.84 12.3 2.72 16a44.84 44.84 0 003.55 6c.69.82 2.04 3.97 3 7 1.06 3.35 1.49 6.67 1.09 8.5a18.81 18.81 0 01-2.12 5.25C81.27 185.59 80.08 186 76 186c-4.42 0-5.5-.45-9.25-3.89-2.34-2.15-5.95-6.76-8.03-10.25a87.56 87.56 0 01-6.38-14.36c-2.18-6.69-2.61-9.88-2.64-19.5-.03-8.84.49-13.47 2.22-20a138 138 0 014.77-14.5 95.14 95.14 0 016.8-12.5c2.35-3.58 8.04-10.04 12.64-14.37 4.61-4.32 11.52-9.82 15.37-12.21 3.85-2.4 10.83-5.91 15.5-7.82 4.67-1.9 12.1-4.21 16.5-5.12 4.94-1.03 12.59-1.66 20-1.65 8.31.01 15.23.68 22.5 2.17 5.78 1.18 13.88 3.45 18 5.04 4.13 1.6 10.32 4.6 13.76 6.68 3.44 2.08 8.59 5.81 11.45 8.28a78.58 78.58 0 019.64 10.5 91.78 91.78 0 017.71 13 100.5 100.5 0 014.89 13c.9 3.3 1.92 11.4 2.25 18 .39 7.57.14 15.51-.66 21.5a149.1 149.1 0 01-3.65 17.75 113.93 113.93 0 01-6.28 16 110.59 110.59 0 01-8.35 13.75 73.89 73.89 0 01-10.87 11.12 86.74 86.74 0 01-12.39 8.15 82.09 82.09 0 01-11.5 4.61c-3.03.87-8.65 2.03-12.5 2.56a50.12 50.12 0 01-26-3.27 43.25 43.25 0 01-9.5-6.43c-2.47-2.29-5.06-4.18-5.75-4.2-.69-.02-1.46.75-1.71 1.71s-1.79 7.38-3.43 14.25a285 285 0 01-6.63 23 239.4 239.4 0 01-7.82 19.32c-3.5 7.41-3.92 8.95-2.66 9.64.83.45 6.45 1.88 12.5 3.17 8.69 1.85 13.94 2.33 25 2.28 11.49-.04 16.24-.55 26.5-2.83 6.88-1.53 15.65-3.9 19.5-5.28 3.85-1.37 10.82-4.4 15.5-6.72a181.43 181.43 0 0015.5-8.84 174.64 174.64 0 0014.5-11.02 151.48 151.48 0 0013.82-13.82 184.91 184.91 0 0010.97-14.4 171.34 171.34 0 008.88-15.5 167.73 167.73 0 007.23-17.5c1.65-4.95 4.21-15.53 5.68-23.5 2.21-12 2.58-16.31 2.14-25-.3-5.78-1.75-16.12-3.23-23-1.48-6.87-3.99-16.1-5.58-20.5a170.7 170.7 0 00-6.99-16 175.83 175.83 0 00-8.43-14.5 185.7 185.7 0 00-10.67-13.9A151.48 151.48 0 00233 35.28a174.64 174.64 0 00-14.5-11.02 181.43 181.43 0 00-15.5-8.84 175.36 175.36 0 00-15.5-6.72c-3.85-1.38-12.62-3.72-19.5-5.21A128.43 128.43 0 00143.5.47c-6.6-.18-13.12-.12-14.5.14z" fill="#fafafa"/>
  <path d="M132.5 50.15c-4.4.46-11.15 1.7-15 2.77a117.66 117.66 0 00-14 5.1 122.33 122.33 0 00-13.75 7.57c-3.71 2.43-10.17 7.67-14.36 11.66C71.21 81.24 65.86 87.42 63.5 91a94.1 94.1 0 00-6.81 12.5 138 138 0 00-4.77 14.5c-1.73 6.53-2.25 11.16-2.22 20 .03 9.62.46 12.81 2.64 19.5a87.56 87.56 0 006.38 14.36c2.08 3.49 5.69 8.1 8.03 10.25C70.5 185.55 71.58 186 76 186c4.07 0 5.28-.42 6.51-2.25a17.4 17.4 0 002.11-5.25c.35-1.74-.12-5.3-1.14-8.5-.95-3.03-2.3-6.18-2.99-7a44.84 44.84 0 01-3.55-6c-1.88-3.7-2.37-6.55-2.72-16-.25-6.65.06-14.03.74-17.5.64-3.3 3.16-10.16 5.6-15.25 3.16-6.58 6.27-11.2 10.78-16a50.67 50.67 0 0114.25-10.91c4.35-2.28 11.29-5.2 15.41-6.48 6.42-1.99 9.59-2.32 22-2.3 10.52.02 16.28.5 21 1.76 3.57.95 8.97 2.95 12 4.44 3.03 1.48 8.13 5.19 11.35 8.22a42.3 42.3 0 019.26 12.52 75.39 75.39 0 015 14.5c1.15 5.43 1.45 10.68 1.08 19a103.64 103.64 0 01-3.61 23.5c-1.72 6.6-4.69 15.26-6.6 19.25a61.7 61.7 0 01-8.84 13c-3.18 3.41-7.76 6.95-11.25 8.71-4.52 2.27-7.64 3.06-13.39 3.38-6.21.35-8.23.05-11.75-1.71-2.34-1.17-5.31-3.59-6.61-5.38-1.3-1.79-3.66-5.59-5.25-8.46l-2.89-5.21c3.52-12.85 6.39-23.55 8.66-32.08 3.06-11.51 4.15-17.56 4.23-23.5.09-6.19-.34-8.88-1.89-11.9-1.1-2.14-3.35-4.83-5-5.96-1.69-1.16-5.18-2.24-8-2.47-3.71-.31-6.1.13-9.25 1.71a33.74 33.74 0 00-7.81 5.87 41.84 41.84 0 00-6.16 9.25c-2.04 4.34-2.69 7.51-3.06 15-.32 6.6.05 11.94 1.21 17.5l1.67 8c-14.13 62.78-18.64 84.82-19.15 89.5-.5 4.68-.94 11.2-.97 14.5-.03 4.37.46 6.68 1.82 8.5a10.48 10.48 0 004.79 3.3c1.88.52 3.93.34 5.79-.5 2.2-.99 3.9-3.44 7.16-10.3a233.3 233.3 0 007.94-19.5 285 285 0 006.63-23 2044.6 2044.6 0 013.43-14.25c.25-.96 1.02-1.73 1.71-1.71.69.02 3.28 1.91 5.75 4.2a43.25 43.25 0 009.5 6.43 50.12 50.12 0 0026 3.27c3.85-.53 9.47-1.69 12.5-2.56 3.03-.88 8.2-2.95 11.5-4.61a86.74 86.74 0 0012.39-8.15 73.89 73.89 0 0010.87-11.12c2.46-3.3 6.22-9.49 8.35-13.75a113.93 113.93 0 006.28-16 149.1 149.1 0 003.65-17.75c.8-5.99 1.05-13.93.66-21.5-.33-6.6-1.35-14.7-2.25-18-.9-3.3-3.1-9.15-4.89-13a91.78 91.78 0 00-7.71-13 78.58 78.58 0 00-9.64-10.5c-2.86-2.47-8.01-6.2-11.45-8.28A106.47 106.47 0 00184 57.04a127.6 127.6 0 00-17.5-4.86c-5.5-1.09-13.6-2.18-18-2.42-4.4-.24-11.6-.07-16 .39z" fill="#151515"/>
  <path d="M124.45 128.95c-.91 1.7-1.52 4.99-1.43 7.75.14 4.5.21 4.61 1.06 1.8a84.42 84.42 0 001.72-7.75c.45-2.61.69-4.75.53-4.75-.16 0-1 1.33-1.88 2.95z" fill="#fafafa"/>
</svg>
