<svg xmlns="http://www.w3.org/2000/svg" viewBox="0 0 200 200">
  <path d="M100 200A99.9 99.9 0 010 100C0 44.7 44.7 0 100 0s100 44.7 100 100-44.7 100-100 100z" fill="#fafafa"/>
  <path fill-rule="evenodd" d="M166.19 104.06a14.74 14.74 0 01-4.22 6.92 14.44 14.44 0 01-3.37 2.32c.03.37.05.73.06 1.1.02.37.02.73.02 1.1 0 .37 0 .73-.02 1.1-.01.37-.03.73-.06 1.1 0 22.4-26.1 40.6-58.3 40.6-32.2 0-58.3-18.2-58.3-40.6-.03-.37-.05-.73-.06-1.1-.02-.37-.02-.73-.02-1.1a20.18 20.18 0 01.08-2.2 14.62 14.62 0 01-6.01-21.42A14.58 14.58 0 0158.1 89.4a72 72 0 0118.6-9 71.33 71.33 0 0120.4-3.3l7.4-34.7a3.1 3.1 0 013.7-2.4l24.5 4.9a10 10 0 11-1.3 6.1L110 46.5l-6.5 31.2A70.98 70.98 0 01142 90a14.6 14.6 0 0124.7 10c.02 1.37-.15 2.74-.51 4.06zM66.7 110a10.1 10.1 0 002.93 7.07 9.98 9.98 0 0016.31-3.24A10 10 0 1066.7 110zm58.03 27.83a2.67 2.67 0 00.05-3.81 2.67 2.67 0 00-1.9-.82 3.3 3.3 0 00-1.98.7A32.69 32.69 0 01100 140a32.98 32.98 0 01-10.94-1.37 32.58 32.58 0 01-9.86-4.93 2.7 2.7 0 00-3.8 3.8 38.94 38.94 0 0011.68 5.99 38.37 38.37 0 0013.02 1.71 38.37 38.37 0 0024.7-7.7l-.07.33zm-1.83-17.03a10.08 10.08 0 007.28-3.03 10.07 10.07 0 002.82-7.37 10.02 10.02 0 00-17.07-7.07A10 10 0 00123 120.4l-.1.4z" fill="#151515"/>
</svg>
