<svg xmlns="http://www.w3.org/2000/svg" viewBox="0 0 210 222">
  <path d="M173 1.35c-1.93.75-4.74 1.89-6.25 2.51-1.51.63-4.8 3.05-7.3 5.39-2.51 2.34-5.49 6.27-6.64 8.75-1.27 2.73-2.33 7.64-2.7 12.49l-.61 8C89.05 70.73 67.22 82.39 62 85.2l-9.5 5.12c-6.2-4.76-10.14-6.86-12.75-7.73a36.24 36.24 0 00-9.5-1.61A41.1 41.1 0 0020 82.69c-4.12 1.3-6.89 3.12-11.04 7.27-4.15 4.15-5.97 6.92-7.27 11.04a40.88 40.88 0 00-1.73 10c0 2.47.78 6.97 1.73 10 1.3 4.12 3.12 6.89 7.27 11.04 4.15 4.15 6.92 5.97 11.04 7.27a41.1 41.1 0 0010.25 1.71c2.61-.01 6.89-.75 9.5-1.63a40.4 40.4 0 008.75-4.49l4-2.87 58.5 31.69 38.5 20.86c1.01 11.56 2.02 16.61 2.9 18.67.88 2.06 3.33 5.66 5.45 8s6.51 5.57 9.75 7.19c4.71 2.35 7.21 2.95 12.4 2.95s7.7-.6 12.42-2.95a39.34 39.34 0 0010-7.5 31.6 31.6 0 005.85-10 39.4 39.4 0 001.77-9.94c0-2.47-.78-6.97-1.73-10-1.3-4.12-3.12-6.89-7.27-11.04-4.15-4.15-6.92-5.97-11.04-7.27a40.88 40.88 0 00-10-1.73c-2.47 0-6.93.8-9.9 1.77a32.98 32.98 0 00-9.25 5.02c-2.12 1.79-4.19 3.24-4.6 3.22-.41-.01-22.12-11.62-48.25-25.79l-47.5-25.77V102.8c73.63-39.32 95.56-50.75 96.25-50.77.69-.01 2.94 1.28 5 2.88a34.33 34.33 0 008.5 4.5c2.61.88 6.89 1.6 9.5 1.61A41.1 41.1 0 00190 59.31c4.12-1.3 6.89-3.12 11.04-7.27 4.15-4.15 5.97-6.92 7.27-11.04a40.88 40.88 0 001.73-10c0-2.47-.8-6.95-1.77-9.94a31.6 31.6 0 00-5.85-10 36.46 36.46 0 00-10-7.41C189.16 2.08 184.25.61 181.5.38c-2.88-.24-6.48.17-8.5.97z" fill="#151515"/>
</svg>
