<svg xmlns="http://www.w3.org/2000/svg" viewBox="0 0 244 244">
	<path d="M47 1.91c-4.67.99-10.3 2.37-12.5 3.08-2.2.71-6.47 2.52-9.5 4.03a56.85 56.85 0 00-10.5 7.25 52.31 52.31 0 00-8.21 9.87A52.04 52.04 0 001.54 37.5 60.4 60.4 0 00-.01 50c0 3.58.7 9.2 1.56 12.5.85 3.3 2.73 8.03 4.17 10.5 1.44 2.47 5.36 7.13 8.7 10.34 3.34 3.22 8.78 7.14 12.08 8.72 3.3 1.57 10.05 3.85 15 5.06 8.67 2.12 11.53 2.22 78.5 2.86 66 .63 69.83.77 76 2.69a79.18 79.18 0 019.5 3.59c1.65.86 4.26 2.84 5.79 4.4a15.72 15.72 0 013.69 7.34c.57 2.85.53 5.97-.12 8.5-.58 2.26-2.62 5.64-4.69 7.77-2.5 2.57-5.58 4.37-9.67 5.65-3.3 1.04-7.12 2.23-8.5 2.64-1.37.42-26.12 1.02-55 1.35-51.31.58-52.58.64-56 2.72a16.24 16.24 0 00-5.25 5.75C74.79 154.37 74 156.9 74 158c0 1.1.79 3.63 1.75 5.62a16.24 16.24 0 005.25 5.75c3.43 2.09 4.5 2.14 53 2.44 32.32.2 52.28-.08 57.5-.8 4.4-.61 12.27-2.42 17.5-4.04 7.43-2.29 11.01-4.08 16.41-8.2 3.8-2.9 8.65-7.74 10.78-10.77a51.87 51.87 0 005.59-10.5c1.24-3.6 1.7-8.07 1.66-16-.04-9.08-.46-12.05-2.4-17-1.8-4.6-4.11-7.77-9.94-13.61-4.42-4.43-9.9-8.77-13.1-10.38-3.02-1.53-9.77-3.93-15-5.34l-9.5-2.56C85.77 71.62 53.38 70.99 52 70.57c-1.37-.42-5.2-1.61-8.5-2.65-4.09-1.28-7.17-3.08-9.67-5.65-2.01-2.07-4.15-5.57-4.75-7.77a20.8 20.8 0 01-.46-7.5c.34-1.92 1.3-4.62 2.13-6 .82-1.37 2.46-3.3 3.63-4.28 1.16-.98 3.7-2.47 5.62-3.31 1.92-.84 6.2-2.27 9.5-3.16 5.25-1.42 17.09-1.7 94.5-2.19 88.1-.56 88.52-.57 92-2.69a16.24 16.24 0 005.25-5.75c.96-1.99 1.75-4.52 1.75-5.62 0-1.1-.79-3.63-1.75-5.62A16.24 16.24 0 00236 2.63C232.5.5 232.43.5 144 .31 62.3.13 54.85.26 47 1.91zm21.38 103.15a20.6 20.6 0 00-6.64 5.75c-1.38 2.03-15.01 27.09-30.28 55.69-15.27 28.6-28.38 53.8-29.13 56a26.94 26.94 0 00-1.38 7c0 1.65 1.03 4.57 2.29 6.5a18.42 18.42 0 005.78 5.3 11.24 11.24 0 006.98 1.25c1.92-.3 5.08-1.6 7-2.89 2.92-1.95 7.08-9.01 24.94-42.25 11.8-21.95 25.14-46.88 29.65-55.41 4.51-8.53 8.75-17.3 9.43-19.5.67-2.2.96-5.57.64-7.5a17.05 17.05 0 00-2.87-6.43 16.1 16.1 0 00-5.54-4.25c-1.79-.72-4.04-1.32-5-1.32s-3.61.93-5.87 2.06z" fill="#151515"/>
</svg>
