<svg xmlns="http://www.w3.org/2000/svg" viewBox="0 0 237 236">
  <path d="M53 1.07c-1.92.46-7.55 1.61-12.5 2.56A68.34 68.34 0 0024 9.1c-4.83 2.4-9.19 5.54-12.25 8.82a50.22 50.22 0 00-7.43 10.83c-1.99 4.26-2.8 7.82-3.12 13.75-.25 4.67.13 10.5.91 14 .75 3.38 2.9 8.4 4.93 11.5a52.82 52.82 0 008.53 9.66A49.32 49.32 0 0025.5 84c2.75 1.2 8.38 3.12 12.5 4.28 7.17 2 10.56 2.12 77.5 2.76 41.6.39 71.42 1.07 73.5 1.67 1.93.55 6.2 1.85 9.5 2.89 4.44 1.4 7.33 3.19 11.14 6.9 4.21 4.1 5.34 5.95 6.25 10.25.82 3.86.81 6.64-.01 10.5-.91 4.25-2.11 6.23-6.25 10.39-4.06 4.07-6.49 5.56-11.63 7.15a109.9 109.9 0 01-14.25 3.11c-4.73.67-25.84 1.1-54.25 1.1-36.24 0-47.22.29-49.75 1.32a8.2 8.2 0 00-4.62 4.75c-1.16 2.91-1.16 3.88 0 6.36a9.73 9.73 0 004.62 4.25c2.54 1.03 13.94 1.32 52.5 1.3 27.53-.01 52.34-.46 56.25-1.02a130.1 130.1 0 0015.25-3.48c6.06-1.82 9.91-3.76 14.5-7.3 3.44-2.65 7.95-7.26 10.02-10.25 2.07-2.99 4.43-7.9 5.24-10.93a56.07 56.07 0 001.47-12c0-3.58-.6-8.75-1.34-11.5a49.42 49.42 0 00-2.87-8c-.85-1.65-4.03-5.47-7.05-8.5-3.03-3.03-7.92-6.82-10.86-8.43-2.95-1.61-9.18-4.05-13.86-5.42l-8.5-2.5C54.01 72.41 50.12 72.27 43 70.32c-4.12-1.14-8.85-2.75-10.5-3.58-1.65-.83-4.84-3.48-7.09-5.88-3.06-3.27-4.38-5.73-5.27-9.86-.65-3.02-.89-7.08-.53-9 .37-1.92 1.5-5.19 2.53-7.25a21.02 21.02 0 015.11-6.23c1.79-1.36 6.63-3.62 10.75-5.02a93.92 93.92 0 0115.5-3.53c4.61-.56 42.84-.97 90.25-.97 65.88 0 82.9-.26 85.5-1.32a8.2 8.2 0 004.62-4.75c1.16-2.91 1.16-3.86 0-6.27a13.1 13.1 0 00-3.87-4.5C227.73.65 219.76.49 142 .37c-47.03-.08-87.08.24-89 .7zm22.12 99.68c-1.6 1.51-18.55 28.85-37.66 60.75C9.12 208.8 2.62 220.33 2.19 224c-.46 3.9-.17 4.86 2.14 7.25C6.24 233.22 8 234 10.5 234c2.45 0 4.37-.83 6.4-2.75 1.59-1.51 18.53-28.85 37.64-60.75 28.34-47.3 34.84-58.83 35.27-62.5.46-3.9.17-4.86-2.14-7.25C85.76 98.79 84 98 81.52 98c-2.43 0-4.37.83-6.4 2.75z"/>
</svg>
