<svg xmlns="http://www.w3.org/2000/svg" viewBox="0 0 282 282">
  <path d="M129 .61c-1.37.25-8.12 1.61-15 3.02-6.87 1.41-15.65 3.69-19.5 5.06A177.35 177.35 0 0079 15.42a182.98 182.98 0 00-15.5 8.84A176.32 176.32 0 0049 35.28 152.76 152.76 0 0035.18 49.1a184.91 184.91 0 00-10.97 14.4A172.72 172.72 0 0015.33 79 166.83 166.83 0 008.1 96.5c-1.65 4.95-4.21 15.53-5.68 23.5C.21 132-.16 136.31.28 145c.3 5.78 1.75 16.13 3.23 23 1.48 6.88 3.99 16.1 5.58 20.5 1.6 4.4 4.74 11.6 6.99 16s6.04 10.93 8.43 14.5c2.4 3.57 7.2 9.83 10.67 13.9 3.48 4.07 9.7 10.29 13.82 13.82a176.32 176.32 0 0014.5 11.02 182.98 182.98 0 0015.5 8.84 174.09 174.09 0 0015.5 6.72c3.85 1.38 12.63 3.75 19.5 5.29 10.52 2.34 14.79 2.78 27 2.78s16.48-.44 27-2.78c6.88-1.54 15.65-3.91 19.5-5.29 3.85-1.37 10.82-4.4 15.5-6.72a181.43 181.43 0 0015.5-8.84 174.64 174.64 0 0014.5-11.02 151.48 151.48 0 0013.82-13.82 184.91 184.91 0 0010.97-14.4 171.34 171.34 0 008.88-15.5 167.73 167.73 0 007.23-17.5c1.65-4.95 4.21-15.53 5.68-23.5 2.21-12 2.58-16.31 2.14-25-.3-5.78-1.69-15.9-3.11-22.5a217.76 217.76 0 00-5.12-19.5 159.41 159.41 0 00-6.8-16 175.21 175.21 0 00-8.9-15.5 184.91 184.91 0 00-10.97-14.4A151.48 151.48 0 00233 35.28a174.64 174.64 0 00-14.5-11.02 181.43 181.43 0 00-15.5-8.84 175.36 175.36 0 00-15.5-6.72c-3.85-1.38-12.62-3.72-19.5-5.21A128.43 128.43 0 00143.5.47c-6.6-.18-13.12-.12-14.5.14z" fill="#fafafa"/>
  <path d="M173.5 59.09c-2.75.46-8.15 2.38-12 4.27a40.46 40.46 0 00-12.4 9.29c-2.97 3.22-6.27 7.88-7.34 10.35a70.24 70.24 0 00-3.28 11 39.37 39.37 0 00-.66 11.92l.68 5.42c-12.4-1.11-20.5-2.73-26-4.31a154.57 154.57 0 01-17.5-6.26 146.7 146.7 0 01-16.48-9.34 144.67 144.67 0 01-17-13.64c-4.41-4.23-8.69-7.73-9.52-7.77-.83-.04-2.1 1.17-2.83 2.7-.73 1.53-1.92 5.7-2.63 9.28-1.06 5.3-1.07 7.7-.03 13a58.3 58.3 0 003.63 11.47c1.3 2.74 4.5 7.35 7.11 10.25 2.61 2.91 4.75 5.5 4.75 5.78 0 .28-1.01.51-2.25.52-1.24.01-4.28-.67-6.75-1.52-2.48-.85-5.17-1.54-6-1.53-1.2.01-1.39.95-.93 4.77.31 2.62 2.11 8.08 4 12.13 2.34 5.05 5.01 8.84 8.43 12.01a55.1 55.1 0 0011.2 7.63c3.4 1.64 6.22 3.33 6.25 3.74.03.41-2.42.75-5.45.75-3.03 0-6.17.22-7 .5-.83.28-1.52 1.29-1.54 2.25-.02.96 1.74 4.45 3.91 7.75s5.9 7.42 8.29 9.16a72.27 72.27 0 009.84 5.73c3.03 1.41 7.41 2.8 9.75 3.09 2.34.28 4.25.86 4.24 1.27 0 .41-1.46 1.7-3.25 2.87a174.07 174.07 0 01-8.74 5.15c-3.03 1.68-9.33 4.2-14 5.61a105.32 105.32 0 01-18.15 3.34c-5.3.43-10.03 1.12-10.5 1.54-.47.42.05 1.43 1.15 2.25a48.7 48.7 0 006.5 3.6c2.48 1.17 8.33 3.44 13 5.06 4.67 1.63 11.88 3.6 16 4.39 4.4.84 13.5 1.44 22 1.43 7.97 0 17.43-.47 21-1.04a133.9 133.9 0 0015.5-3.9 167.9 167.9 0 0015.5-5.85c3.57-1.63 11.22-6.12 17-9.96a114.18 114.18 0 0019.5-16.44c4.95-5.2 11.14-13.02 13.76-17.38 2.62-4.35 6.34-12.2 8.27-17.42a248.01 248.01 0 006.01-19c1.64-6.2 2.72-13.67 3.13-21.5l.62-12c12.91-12.4 16.67-16.79 16.69-17.75.01-.96-.66-1.75-1.48-1.75s-2.51.39-3.75.88c-1.24.48-4.72 1.22-7.75 1.64l-5.5.76c11.09-12.06 13.57-15.61 13.54-17.03-.02-1.24-.6-2.25-1.29-2.26-.69-.01-4.96 1.34-9.5 3S213.88 72 212.5 72c-1.37 0-5.31-1.95-8.75-4.34-3.44-2.39-8.05-5.03-10.25-5.87-2.2-.83-5.8-1.83-8-2.21-2.2-.38-4.68-.83-5.5-1-.82-.18-3.75.05-6.5.51z" fill="#151515"/>
</svg>
