<?xml version="1.0" standalone="no"?>
<!DOCTYPE svg PUBLIC "-//W3C//DTD SVG 20010904//EN"
 "http://www.w3.org/TR/2001/REC-SVG-20010904/DTD/svg10.dtd">
<svg version="1.0" xmlns="http://www.w3.org/2000/svg"
 width="361.000000pt" height="361.000000pt" viewBox="0 0 361.000000 361.000000"
 preserveAspectRatio="xMidYMid meet">
<metadata>
Created by potrace 1.11, written by Peter Selinger 2001-2013
</metadata>
<g transform="translate(0.000000,361.000000) scale(0.100000,-0.100000)"
fill="$color-black000" stroke="none">
<path d="M1100 2980 c-249 -33 -415 -145 -464 -313 -20 -70 -21 -198 0 -268
45 -154 157 -248 359 -301 76 -20 113 -22 780 -28 452 -5 712 -11 735 -18 149
-46 155 -49 212 -108 67 -68 74 -177 16 -255 -33 -44 -97 -83 -178 -109 -74
-24 -80 -24 -600 -27 -353 -3 -534 -7 -553 -15 -37 -15 -57 -45 -57 -88 0 -43
20 -73 58 -89 22 -9 165 -11 578 -9 l549 4 95 28 c52 16 104 33 115 39 49 26
137 102 166 144 66 96 87 242 53 375 -31 121 -144 230 -290 277 -133 44 -128
44 -849 51 -750 7 -764 8 -866 60 -91 47 -149 143 -136 226 20 123 131 198
332 224 39 5 452 10 918 10 l849 0 29 29 c41 41 41 101 0 142 l-29 29 -884 -1
c-486 -1 -908 -5 -938 -9z"/>
<path d="M1390 2013 c-30 -16 -82 -96 -393 -613 -196 -327 -362 -612 -367
-632 -13 -47 -5 -80 27 -110 31 -29 102 -31 134 -2 28 25 719 1178 736 1228
17 47 10 86 -20 115 -33 30 -75 35 -117 14z"/>
</g>
</svg>
